<?xml version="1.0" standalone="no"?><!DOCTYPE svg PUBLIC "-//W3C//DTD SVG 1.1//EN" "http://www.w3.org/Graphics/SVG/1.1/DTD/svg11.dtd"><svg t="1748238037553" class="icon" viewBox="0 0 1024 1024" version="1.1" xmlns="http://www.w3.org/2000/svg" p-id="8225" xmlns:xlink="http://www.w3.org/1999/xlink" width="200" height="200"><path d="M567.719936 491.383467l400.315733-400.315734a52.4288 52.4288 0 0 0 0-73.728l-2.184533-2.184533a52.4288 52.4288 0 0 0-73.728 0L491.807403 416.017067 91.491669 15.1552a52.4288 52.4288 0 0 0-73.728 0L15.579136 17.339733a51.4048 51.4048 0 0 0 0 73.728l400.315733 400.315734-400.315733 400.315733a52.4288 52.4288 0 0 0 0 73.728l2.184533 2.184533a52.4288 52.4288 0 0 0 73.728 0L491.807403 567.296l400.315733 400.315733a52.4288 52.4288 0 0 0 73.728 0l2.184533-2.184533a52.4288 52.4288 0 0 0 0-73.728L567.719936 491.383467z" fill="#2c2c2c" p-id="8226"></path></svg>